<?xml version="1.0" standalone="no"?>
<!DOCTYPE svg PUBLIC "-//W3C//DTD SVG 1.1//EN" "http://www.w3.org/Graphics/SVG/1.1/DTD/svg11.dtd" >
<svg xmlns="http://www.w3.org/2000/svg">
<metadata></metadata>
<defs>
<font id="ffscala-boldregular" horiz-adv-x="512" >
<font-face units-per-em="2048" ascent="1638" descent="-410" />
<missing-glyph horiz-adv-x="500" />
<glyph horiz-adv-x="2048" />
<glyph horiz-adv-x="2048" />
<glyph unicode="&#xd;" />
<glyph unicode=" " />
<glyph unicode="!" horiz-adv-x="540" d="M135 1509h273l-70 -1116h-125zM154 94q0 47 34.5 82t81.5 35t82 -35t35 -82t-35 -82t-82 -35t-81.5 35t-34.5 82z" />
<glyph unicode="&#x22;" horiz-adv-x="837" d="M166 885v463h172v-463h-172zM496 885v463h170v-463h-170z" />
<glyph unicode="#" horiz-adv-x="1126" d="M6 420l29 151h221l45 234h-221l29 149h223l78 394h155l-76 -394h259l75 394h162l-76 -394h211l-28 -149h-213l-43 -234h215l-29 -151h-217l-82 -420h-162l82 420h-260l-82 -420h-160l84 420h-219zM416 571h256l47 234h-260z" />
<glyph unicode="$" horiz-adv-x="1112" d="M82 92l131 209q72 -88 106.5 -118.5t124.5 -86.5l78 6v467l-76 49q-168 111 -213 148t-86 100.5t-41 157.5q0 152 115 254t301 102v119h94v-117q162 0 220.5 -15t162.5 -77l-137 -194q-57 74 -94 104.5t-109 69.5l-43 -6v-439l105 -65q143 -90 202.5 -142.5t92.5 -118 t33 -137.5q0 -162 -121 -272t-312 -110v-119h-94v112q-207 0 -272.5 28t-167.5 91zM375 1081q0 -59 27.5 -97t119.5 -101v372q-147 -27 -147 -174zM616 113q90 33 124 72.5t34 109.5q0 74 -34.5 124t-123.5 99v-405z" />
<glyph unicode="%" horiz-adv-x="1740" d="M70 1014q0 147 104.5 253.5t253.5 106.5q150 0 254 -104.5t104 -255.5q0 -150 -104 -254.5t-254 -104.5q-147 0 -252.5 105.5t-105.5 253.5zM209 -94l1145 1501h194l-1179 -1501h-160zM227 1014q0 -84 58.5 -142.5t142.5 -58.5q86 0 143.5 57.5t57.5 143.5 q0 84 -58.5 142t-142.5 58t-142.5 -58t-58.5 -142zM954 332q0 150 104.5 254t254.5 104q147 0 252.5 -105.5t105.5 -252.5t-105.5 -253t-252.5 -106q-150 0 -254.5 104.5t-104.5 254.5zM1112 332q0 -84 58.5 -142.5t142.5 -58.5t142 58.5t58 142.5t-58 142t-142 58 q-86 0 -143.5 -57t-57.5 -143z" />
<glyph unicode="&#x26;" horiz-adv-x="1439" d="M33 356q0 250 332 439l-72 104q-61 86 -84 141.5t-23 122.5q0 158 117 254t313 96q156 0 255.5 -76.5t99.5 -195.5q0 -68 -37 -128t-117 -120l-106 -82l-64 84q119 84 119 224q0 86 -44 136t-118 50q-80 0 -127 -51t-47 -137q0 -57 20.5 -109.5t73.5 -124.5l408 -563 q51 74 72.5 121t52.5 121h-172v86h463v-86h-162q-39 -115 -77 -188t-112 -169q115 -150 197 -149q33 0 62.5 25.5t86.5 103.5l97 -80q-98 -147 -152.5 -189.5t-148.5 -42.5q-92 0 -156.5 32t-136.5 118q-106 -88 -180 -119t-185 -31q-201 0 -324.5 105.5t-123.5 277.5z M295 393q0 -125 63.5 -202.5t167.5 -77.5q131 -1 244 110l-338 471q-137 -125 -137 -301z" />
<glyph unicode="'" d="M172 885v463h170v-463h-170z" />
<glyph unicode="(" horiz-adv-x="632" d="M141 414q0 328 91.5 540.5t123 270t82.5 127.5h158q-92 -178 -151.5 -441.5t-59.5 -496.5q0 -244 57.5 -499t153.5 -439h-158q-51 72 -82.5 127t-123 269t-91.5 542z" />
<glyph unicode=")" horiz-adv-x="632" d="M37 -524q90 176 149.5 441t59.5 497q0 238 -57.5 496.5t-151.5 441.5h158q84 -115 156.5 -284t105 -323.5t32.5 -330.5q0 -174 -32.5 -329t-94 -297t-88 -190t-79.5 -122h-158z" />
<glyph unicode="*" horiz-adv-x="1024" d="M43 983l68 209l327 -180l-24 -76zM154 637l272 256l66 -49l-158 -338zM403 1403h222l-70 -367h-82zM532 846l66 49l272 -256l-178 -131zM586 1012l327 178l68 -209l-371 -47z" />
<glyph unicode="+" horiz-adv-x="1126" d="M78 401v168h401v402h168v-402h402v-168h-402v-401h-168v401h-401z" />
<glyph unicode="," d="M94 -207q72 57 102.5 102.5t30.5 88.5t-24.5 69.5t-81.5 42.5q47 117 141 117q63 0 100 -39t37 -104q0 -171 -221 -357z" />
<glyph unicode="-" horiz-adv-x="563" d="M66 354v230h426v-230h-426z" />
<glyph unicode="." d="M119 115q0 57 40 97t97 40t97 -40t40 -97t-40 -97.5t-97 -40.5t-97 40t-40 98z" />
<glyph unicode="/" horiz-adv-x="837" d="M84 -498l516 1850h154l-514 -1850h-156z" />
<glyph unicode="0" horiz-adv-x="1234" d="M121 471q0 207 144.5 353.5t352.5 146.5q207 0 352.5 -145.5t145.5 -354.5q0 -207 -145.5 -352.5t-352.5 -145.5t-352 145.5t-145 352.5zM307 471q0 -129 90 -219t221 -90q129 0 219.5 90t90.5 219q0 127 -90 219t-220 92q-129 0 -220 -91t-91 -220z" />
<glyph unicode="1" horiz-adv-x="792" d="M111 0v86h165v772h-165v86h571v-86h-166v-772h166v-86h-571z" />
<glyph unicode="2" horiz-adv-x="1081" d="M94 0v100l336 262q182 141 182 304q0 82 -38.5 132t-104.5 50q-117 0 -266 -156l-76 74q102 117 187 161t208 44q158 0 252 -74t94 -201q0 -90 -45 -155.5t-180 -167.5l-293 -221h502v184h119v-336h-877z" />
<glyph unicode="3" horiz-adv-x="882" d="M68 -408q213 0 342 117t129 293q0 123 -64.5 200t-167.5 77h-90v67q135 102 185.5 181t50.5 188q0 135 -107 135q-45 0 -87 -27.5t-107 -101.5l-70 76q84 96 157.5 135t176.5 39q133 0 217 -72t84 -184q0 -188 -275 -314q76 0 118 -15t135 -90t93 -259 q0 -178 -133 -322.5t-275 -183.5t-189 -47t-123 -8v116z" />
<glyph unicode="4" horiz-adv-x="1124" d="M16 0v37l738 934h94v-819h100l74 2v-154h-174v-498h-240v498h-592zM264 152h344v444z" />
<glyph unicode="5" horiz-adv-x="884" d="M102 -401q102 14 152.5 30.5t160 96t109.5 286.5q0 115 -45 199t-118.5 119t-210.5 53v561h509v100h105v-270h-510v-262q125 0 212 -33t165 -94t119 -149.5t41 -186.5q0 -119 -71 -237.5t-179.5 -193.5t-191.5 -101.5t-247 -40.5v123z" />
<glyph unicode="6" horiz-adv-x="1249" d="M102 586q0 297 163 539.5t340 305t245 72.5t205 10v-102q-106 0 -168 -14.5t-163 -62.5t-183 -155.5t-129 -267t-47 -336.5q0 -221 72.5 -353t193.5 -132q104 0 179 99.5t75 238.5q0 141 -82 227t-219 86h-88l12 101q53 12 84 16t70 4q207 0 345 -122t138 -302 q0 -190 -153.5 -327.5t-368.5 -137.5q-229 0 -375 170t-146 443z" />
<glyph unicode="7" horiz-adv-x="1001" d="M51 578v426h133v-60h772v-78l-376 -827l-105 -207q-33 -57 -67.5 -116.5t-58 -99.5t-97.5 -140l-189 114q84 76 126 121t123 152.5t147 247.5l289 639h-564v-172h-133z" />
<glyph unicode="8" horiz-adv-x="1126" d="M94 348q0 176 191 330l135 110l-133 117q-141 123 -142 283q0 145 111 235t297 90q176 0 282.5 -88t106.5 -233q0 -80 -30.5 -134t-123.5 -134l-81 -74l167 -145q84 -74 129.5 -158t45.5 -170q0 -174 -143.5 -289t-362.5 -115q-207 0 -328 100.5t-121 274.5zM283 348 q0 -121 69.5 -192.5t192.5 -71.5q115 0 184.5 67.5t69.5 178.5q0 135 -101 221l-178 154l-121 -107q-117 -104 -116 -250zM379 1217q0 -100 100 -185l129 -104l54 55q96 96 96 219q0 94 -53.5 151.5t-141.5 57.5q-78 0 -131 -55.5t-53 -138.5z" />
<glyph unicode="9" horiz-adv-x="1249" d="M100 504q0 190 154 327.5t369 137.5q233 0 376.5 -170t143.5 -445q0 -193 -67.5 -343t-214 -286.5t-270.5 -180.5t-193.5 -54t-207.5 -10v102q109 0 169.5 14.5t154.5 60.5t230.5 206t136.5 499q0 225 -72 358.5t-195 133.5q-102 0 -178 -101.5t-76 -238.5 q0 -139 83 -226t219 -87h88l-13 -99q-53 -12 -83.5 -16t-67.5 -4q-207 0 -346.5 121t-139.5 301z" />
<glyph unicode=":" d="M117 115q0 57 40 97t97 40t98 -39t41 -98q0 -55 -41 -96.5t-98 -41.5t-97 40t-40 98zM117 815q0 57 40 97t97 40t97 -40t40 -97t-40 -97t-97 -40t-97 40t-40 97z" />
<glyph unicode=";" d="M84 -207q131 109 131 191q0 45 -22.5 69.5t-81.5 42.5q45 117 141 117q63 0 100 -39t37 -104q0 -171 -221 -357zM125 815q0 57 40 97t97 40t97 -40t40 -97t-40 -97t-97 -40t-97 40t-40 97z" />
<glyph unicode="&#x3c;" horiz-adv-x="1126" d="M80 430v111l967 430v-164l-728 -322l728 -321v-164z" />
<glyph unicode="=" horiz-adv-x="1126" d="M51 223v168h1024v-168h-1024zM51 557v168h1024v-168h-1024z" />
<glyph unicode="&#x3e;" horiz-adv-x="1126" d="M80 0v164l727 321l-727 322v164l967 -430v-111z" />
<glyph unicode="?" horiz-adv-x="837" d="M158 1245l90 262q102 -27 153.5 -51t138.5 -97t148.5 -199t61.5 -255q0 -147 -76 -236t-205 -89h-96l-37 -187h-88v391h340q6 33 6 66q0 100 -45 181t-118 121t-115 54.5t-158 38.5zM172 94q0 49 33 84t82 35t84 -33t35 -82t-34 -85t-83 -36q-47 0 -82 35t-35 82z" />
<glyph unicode="@" horiz-adv-x="2048" d="M203 446q0 379 241.5 621t622.5 242q184 0 323.5 -55.5t250 -172t159.5 -242.5t49 -290q0 -174 -43 -279.5t-160.5 -196.5t-297.5 -91q-115 0 -167.5 46t-52.5 150q0 31 5.5 63.5t9.5 49.5l22 88q-72 -115 -123 -175.5t-110.5 -107.5t-119.5 -73.5t-99 -26.5 q-53 0 -88 85t-35 216q0 289 141 486.5t348 197.5q55 0 85 -8t85 -43l62 51h80l-117 -727l-8 -86q0 -86 123 -86q92 0 176 49t136 144.5t52 281.5q0 137 -39 238.5t-136 209t-214 156.5t-287 49q-352 0 -563 -202.5t-211 -544.5q0 -197 57.5 -327t174 -222t216 -123 t250.5 -31q111 0 179.5 14.5t156.5 57.5l41 -90q-92 -43 -176 -61.5t-190 -18.5q-176 0 -293 39t-249 145.5t-199.5 255t-67.5 344.5zM752 342q0 -172 82 -172q43 0 103 54.5t151.5 187.5t136.5 389q-41 53 -77 74.5t-79 21.5q-125 0 -221 -168t-96 -387z" />
<glyph unicode="A" horiz-adv-x="1376" d="M0 0v86h127l528 1309h125l508 -1309h86v-86h-500v86h144l-127 332h-498l-133 -332h164v-86h-424zM442 543h402l-195 512z" />
<glyph unicode="B" horiz-adv-x="1300" d="M102 0v86h156v1180h-156v86h658q188 0 288.5 -84t100.5 -242q0 -152 -91 -232.5t-261 -80.5q201 0 310.5 -93.5t109.5 -263.5t-110 -263t-308 -93h-697zM522 111h142q280 0 280 258q0 125 -73.5 200.5t-198.5 75.5h-150v-534zM522 758h146q88 0 148.5 70.5t60.5 175.5 q0 109 -57.5 172t-155.5 63h-142v-481z" />
<glyph unicode="C" horiz-adv-x="1366" d="M86 672q0 303 205 503.5t514 200.5q182 0 344 -69v86h113v-367h-113v131q-84 59 -147.5 82t-143.5 23q-215 0 -349 -161t-134 -417q0 -252 143.5 -421t358.5 -169q76 0 138 18.5t134 63.5v156h115v-273q-125 -45 -226.5 -65.5t-212.5 -20.5q-324 0 -531.5 196t-207.5 503 z" />
<glyph unicode="D" horiz-adv-x="1515" d="M102 0v86h156v1180h-156v86h639q291 0 490 -194.5t199 -479.5q0 -141 -55.5 -269t-201 -268.5t-434.5 -140.5h-637zM522 113h166q195 0 324 161.5t129 403.5q0 227 -131 393t-314 166h-174v-1124z" />
<glyph unicode="E" horiz-adv-x="1189" d="M102 0v86h156v1180h-156v86h844v57h111v-326h-109v148h-426v-483h328v139l111 2v-404l-111 -2v144h-328v-506h445v151h110v-272h-975z" />
<glyph unicode="F" horiz-adv-x="1169" d="M102 0v86h156v1180h-156v86h844v57h111v-326h-109v148h-426v-483h328v139l111 2v-404l-111 -2v144h-328v-541h137v-86h-557z" />
<glyph unicode="G" horiz-adv-x="1525" d="M86 678q0 223 127 406.5t298 238.5t333 55q160 0 334 -61v76h112v-365h-112v156q-78 41 -149 59.5t-159 18.5q-209 0 -352 -168t-143 -416q0 -238 153.5 -410t368.5 -172q53 0 75.5 5t82.5 24v340h-176v86h594v-86h-154v-414q-152 -41 -258.5 -59.5t-210.5 -18.5 q-338 0 -551 197t-213 508z" />
<glyph unicode="H" horiz-adv-x="1710" d="M102 0v86h156v1180h-156v86h574v-86h-154v-521h666v521h-154v86h574v-86h-156v-1180h156v-86h-574v86h154v539h-666v-539h154v-86h-574z" />
<glyph unicode="I" horiz-adv-x="761" d="M94 0v86h156v1180h-156v86h574v-86h-154v-1180h154v-86h-574z" />
<glyph unicode="J" horiz-adv-x="745" d="M61 -383q92 88 131 182.5t39 235.5v158v1073h-153v86h573v-86h-155v-1303q-72 -152 -134.5 -230.5t-214.5 -205.5z" />
<glyph unicode="K" horiz-adv-x="1337" d="M102 0v86h156v1178l-156 2v86h574v-86h-154v-1180h154v-86h-574zM541 668l444 598h-178v86h491v-86h-157l-367 -490l506 -690h98v-86h-346z" />
<glyph unicode="L" horiz-adv-x="1087" d="M102 0v86h156v1180h-156v86h574v-86h-154v-1145h436v151h111v-272h-967z" />
<glyph unicode="M" horiz-adv-x="1845" d="M78 0v86h172v1180h-172v86h362l486 -953l428 953h405v-86h-172v-1180h172v-86h-608v86h172v885l-451 -991l-493 972v-866h172v-86h-473z" />
<glyph unicode="N" horiz-adv-x="1509" d="M68 1266v86h407l664 -944v858h-162v86h463v-86h-172v-1289h-144l-712 1004v-895h161v-86h-462v86h170v1075l-66 105h-147z" />
<glyph unicode="O" horiz-adv-x="1521" d="M86 676q0 295 196.5 497.5t479.5 202.5t480.5 -203.5t197.5 -496.5t-196.5 -498t-481.5 -205q-283 0 -479.5 205t-196.5 498zM375 676q0 -233 116.5 -409.5t270.5 -176.5q156 0 272.5 176t116.5 410q0 231 -116.5 407.5t-272.5 176.5q-154 0 -270.5 -176.5t-116.5 -407.5 z" />
<glyph unicode="P" horiz-adv-x="1228" d="M102 0v86h156v1180h-156v86h621q190 0 305 -106.5t115 -282.5q0 -168 -128 -288t-308 -120q-27 0 -48.5 2t-62.5 10v101q27 -6 55 -6q104 0 160.5 72.5t56.5 209.5q0 293 -223 293h-123v-1151h174v-86h-594z" />
<glyph unicode="Q" horiz-adv-x="1554" d="M86 674q0 295 196.5 498.5t481.5 203.5q281 0 477.5 -202.5t196.5 -497.5q0 -227 -135.5 -421t-331.5 -247q224 -241 349 -241h1q20 0 50 15t83 54l64 -96l-308 -225q-113 61 -163 96t-129.5 103.5t-133 121.5t-135.5 148q-164 41 -230.5 76.5t-199.5 191.5t-133 422z M375 676q0 -229 116.5 -407.5t268.5 -178.5q156 0 272.5 176t116.5 410q0 227 -117 405.5t-264 178.5q-160 0 -276.5 -174t-116.5 -410z" />
<glyph unicode="R" horiz-adv-x="1339" d="M102 0v86h156v1180h-156v86h605q135 0 212.5 -22.5t156.5 -102.5t79 -240q0 -274 -287 -362l291 -447q59 -90 113 -90h84v-88h-260q-92 0 -125 18.5t-86 102.5l-307 481h-56v-516h154v-86h-574zM522 705h121q106 0 172 75.5t66 198.5t-59.5 190.5t-170.5 67.5h-129v-532z " />
<glyph unicode="S" horiz-adv-x="1150" d="M166 1001q0 170 112.5 272.5t303.5 102.5q115 0 221 -45v62h110v-351h-110v142q-119 76 -217 76q-80 0 -134.5 -50.5t-54.5 -122.5q0 -61 47.5 -112t196.5 -146l176 -114q74 -51 128 -139.5t54 -204.5q0 -176 -114.5 -287t-294.5 -111q-164 0 -299 80v-71h-113v368h113 v-151q70 -55 128 -78t134 -23q96 0 157.5 51.5t61.5 131.5q0 70 -52 128t-198.5 151t-191.5 128t-104.5 103.5t-59.5 209.5z" />
<glyph unicode="T" horiz-adv-x="1228" d="M16 1061v348h113v-57h971v57h112v-348h-112v170h-352v-1145h196v-86h-659v86h198v1145h-354v-170h-113z" />
<glyph unicode="U" horiz-adv-x="1597" d="M102 1266v86h574v-86h-154v-764q0 -158 31 -236t109.5 -119t171.5 -41q186 0 287.5 103.5t101.5 292.5v762h-170v88h475v-86h-172v-770q0 -340 -196.5 -431.5t-354.5 -91.5q-250 0 -398.5 126t-148.5 339v828h-156z" />
<glyph unicode="V" horiz-adv-x="1353" d="M-16 1266v86h557v-86h-174l366 -940l369 940h-148v86h416v-86h-119l-508 -1301h-131l-508 1301h-120z" />
<glyph unicode="W" horiz-adv-x="1929" d="M-16 1266v86h497v-86h-114l366 -940l166 417l-205 523h-114v86h790v-86h-145l-142 -365l236 -590l373 955h-148v86h402v-86h-103l-508 -1301h-131l-231 588l-230 -588h-131l-508 1301h-120zM940 1266l80 -205l82 205h-162z" />
<glyph unicode="X" horiz-adv-x="1351" d="M-16 0v86h155l414 559l-391 621h-158v86h590v-86h-135l256 -406l301 406h-180v86h514v-86h-162l-395 -531l413 -649h162v-86h-592v86h133l-274 436l-326 -436h189v-86h-514z" />
<glyph unicode="Y" horiz-adv-x="1253" d="M-16 1266v86h573v-86h-151l290 -449l273 449h-174v86h477v-86h-148l-342 -561v-619h156v-86h-573v86h153v565l-405 615h-129z" />
<glyph unicode="Z" horiz-adv-x="1368" d="M121 0v61l762 1170h-652v-164h-110v342h110v-57h975v-64l-755 -1167h686v211h110v-332h-1126z" />
<glyph unicode="[" d="M106 -498v1850h365v-127h-174v-1596h174v-127h-365z" />
<glyph unicode="\" horiz-adv-x="837" d="M84 1352h156l514 -1850h-154z" />
<glyph unicode="]" d="M41 -387h174v1628h-174v111h365v-1850h-365v111z" />
<glyph unicode="^" horiz-adv-x="692" d="M61 1083l230 338h125l219 -338h-107l-174 181l-176 -181h-117z" />
<glyph unicode="_" horiz-adv-x="1024" d="M0 0h1024v-168h-1024v168z" />
<glyph unicode="`" horiz-adv-x="528" d="M27 1413h223l244 -330h-144z" />
<glyph unicode="a" horiz-adv-x="935" d="M35 211q0 193 198 238l299 67v217q0 76 -22.5 108.5t-77.5 32.5q-29 0 -46 -4t-56 -22v-103l-234 -57q-16 29 -16 57q0 92 97 149.5t257 57.5q338 0 338 -225v-621h123v-67l-137 -43q-45 -14 -96 -14q-109 0 -123 112q-49 -63 -107.5 -92t-138.5 -29q-119 0 -188.5 63.5 t-69.5 174.5zM268 233q0 -59 29 -96t76 -37q37 0 72.5 18.5t86.5 67.5v226l-264 -62v-117z" />
<glyph unicode="b" horiz-adv-x="1077" d="M4 1364v66l293 79h90v-1415q49 -28 89 -28h3q123 0 205 117.5t82 295.5q0 164 -59.5 263.5t-157.5 99.5h-86v82q51 16 91 22t79 6q176 0 284.5 -119.5t108.5 -316.5q0 -111 -34 -211t-133 -216t-384 -116q-74 0 -131.5 7t-196.5 36v1348h-143z" />
<glyph unicode="c" horiz-adv-x="880" d="M43 449q0 215 140.5 359t348.5 144q106 0 177 -20.5t147 -73.5l-129 -129q-53 51 -89 75.5t-99 57.5q-240 -102 -240 -377q0 -156 87 -275.5t200 -119.5q51 0 92 15.5t125 66.5l53 -90q-117 -59 -196.5 -84t-161.5 -25q-201 0 -328 133.5t-127 342.5z" />
<glyph unicode="d" horiz-adv-x="1089" d="M43 442q0 217 142.5 363.5t351.5 146.5q47 0 71.5 -4t77.5 -22v438h-143v66l295 79h90v-1384h143v-68l-295 -77h-90v118q-70 -72 -123 -98.5t-129 -26.5q-170 0 -280.5 133.5t-110.5 335.5zM303 471q0 -150 62.5 -253t152.5 -103q78 0 168 90v497q0 156 -111 156 q-117 0 -194.5 -110.5t-77.5 -276.5z" />
<glyph unicode="e" horiz-adv-x="944" d="M43 459q0 225 128 359t341 134q180 0 287.5 -101t107.5 -271v-78h-612q0 -190 80 -301t219 -111q59 0 103 17.5t171 93.5l47 -90q-152 -84 -230.5 -111t-184.5 -27q-207 0 -332 133.5t-125 352.5zM297 606h356v49q0 92 -40 150.5t-103 58.5q-82 0 -140.5 -70.5 t-72.5 -187.5z" />
<glyph unicode="f" horiz-adv-x="667" d="M37 803v65l143 45v168q0 125 39 203t145.5 153.5t272.5 75.5q168 0 305 -77l-139 -172q-70 63 -103.5 87.5t-113.5 69.5q-113 -31 -139.5 -91t-26.5 -288v-135h211v-104h-211v-717h170v-86h-531v86h121v717h-143z" />
<glyph unicode="g" horiz-adv-x="1038" d="M31 47q63 90 109 142.5t114 111.5q-176 109 -176 291q0 166 107.5 263t289.5 97q150 0 270 -61h140l145 35v-140h-172q61 -72 62 -180q0 -166 -109 -262t-301 -96q-53 0 -86 5t-66 11q-90 -90 -90 -131q0 -37 51 -37h512q193 0 193 -190q0 -184 -151.5 -307t-380.5 -123 q-156 0 -261.5 48t-195.5 159q35 66 58.5 101.5t70.5 88.5l63 72q-74 16 -108.5 34.5t-87.5 67.5zM287 -236q0 -84 65.5 -139t169.5 -55q119 0 205 75.5t86 184.5q0 45 -23.5 65.5t-76.5 20.5h-371q-29 -49 -42 -84t-13 -68zM328 602q0 -123 45 -192.5t127 -69.5 q80 0 126 70.5t46 191.5q0 123 -45 192.5t-127 69.5q-80 0 -126 -70.5t-46 -191.5z" />
<glyph unicode="h" horiz-adv-x="1163" d="M16 1364v66l295 79h90v-729q100 102 168 137t166 35q129 0 197.5 -66.5t68.5 -189.5v-610h121v-86h-481v86h121v571q0 92 -24.5 127t-88.5 35q-61 0 -101 -23.5t-147 -123.5v-586h121v-86h-481v86h121v1278h-146z" />
<glyph unicode="i" horiz-adv-x="577" d="M45 803v65l295 80h80v-862h121v-86h-482v86h121v717h-135zM145 1300q0 59 43.5 102.5t102.5 43.5t102 -43t43 -103q0 -59 -43 -102t-102 -43t-102.5 41t-43.5 104z" />
<glyph unicode="j" horiz-adv-x="563" d="M57 803v65l295 80h80v-1059q-68 -131 -112 -193.5t-183 -219.5l-76 65q86 109 109 176.5t23 214.5v871h-136zM160 1300q0 59 41 102.5t104 43.5q59 0 102.5 -43t43.5 -103q0 -59 -43 -102t-103 -43q-61 0 -103 42t-42 103z" />
<glyph unicode="k" horiz-adv-x="1040" d="M16 1374v56l295 79h90v-1423h121v-86h-481v86h121v1288h-146zM406 467l319 375h-123v86h408v-86h-113l-258 -291l313 -465h86v-86h-325z" />
<glyph unicode="l" horiz-adv-x="546" d="M16 1364v66l295 79h82v-1423h121v-86h-481v86h121v1278h-138z" />
<glyph unicode="m" horiz-adv-x="1808" d="M45 803v65l295 80h90v-162q96 96 166 131t162 35q119 0 181 -45t89 -151q88 106 167 151t179 45q121 0 197 -69.5t76 -184.5v-612h118v-86h-479v86h119v571q0 86 -24.5 123t-84.5 37q-63 0 -114.5 -32.5t-143.5 -133.5v-565h111v-86h-463v86h111v569q0 162 -117 162 q-63 0 -117.5 -32.5t-132.5 -118.5v-580h119v-86h-481v86h120v717h-143z" />
<glyph unicode="n" horiz-adv-x="1189" d="M45 803v65l295 80h90v-168q100 102 167 137t165 35q266 0 266 -256v-610h121v-86h-481v86h120v571q0 94 -22.5 128t-87.5 34q-63 0 -102 -23.5t-146 -123.5v-586h119v-86h-481v86h120v717h-143z" />
<glyph unicode="o" horiz-adv-x="1034" d="M43 463q0 215 133 352t340 137t341 -138t134 -351t-134 -351.5t-341 -138.5t-340 137.5t-133 352.5zM303 463q0 -170 59.5 -278.5t153.5 -108.5t153.5 107.5t59.5 279.5t-59.5 280.5t-153.5 108.5t-153.5 -108.5t-59.5 -280.5z" />
<glyph unicode="p" horiz-adv-x="1101" d="M37 813v57l295 78h90v-90q59 51 116.5 71.5t141.5 20.5q170 0 270.5 -120.5t100.5 -327.5q0 -236 -138.5 -382.5t-359.5 -146.5q-39 0 -62.5 4.5t-68.5 18.5v-408h135v-86h-496v86h121v1225h-145zM422 233q0 -111 19.5 -142.5t84.5 -31.5q115 0 188.5 117t73.5 303 q0 154 -57 249t-151 95q-37 0 -70 -14t-88 -55v-521z" />
<glyph unicode="q" horiz-adv-x="1067" d="M51 430q0 162 75 289t185.5 180t284.5 53q98 0 172 -12t176 -47v-1305h103v-86h-504v86h162v1254q-39 16 -59.5 20t-53.5 4q-131 0 -205 -106.5t-74 -296.5q0 -186 53.5 -281.5t159.5 -95.5h99v-70q-66 -23 -112 -33t-83 -10q-166 0 -272.5 129t-106.5 328z" />
<glyph unicode="r" horiz-adv-x="772" d="M45 803v65l295 80h90v-157l47 51q57 63 96 86.5t82 23.5q49 0 70 -20l63 -55l-129 -179q-74 53 -102 54q-31 0 -56.5 -19.5t-70.5 -79.5v-567h143v-86h-505v86h120v717h-143z" />
<glyph unicode="s" horiz-adv-x="862" d="M80 670q0 127 90 204.5t238 77.5q145 0 229 -69l12 73h107l-51 -294h-105q12 35 12 67q0 53 -61.5 94t-140.5 41q-66 0 -107 -30.5t-41 -83.5q0 -55 45 -89t200 -95.5t214 -129t59 -178.5q0 -135 -85 -210t-240 -75q-174 0 -265 82v-73h-100v290h113v-55 q0 -61 72.5 -108.5t168.5 -47.5q74 0 117 29t43 80q0 61 -51 101t-200.5 97.5t-211 125t-61.5 176.5z" />
<glyph unicode="t" horiz-adv-x="612" d="M18 803v65l136 35v293h233v-289h211v-104h-211v-582v-57q0 -20 17.5 -35.5t39.5 -15.5q41 0 72 16t53 31l43 -74q-80 -66 -132 -89.5t-113 -23.5q-94 0 -153.5 57.5t-59.5 149.5v623h-136z" />
<glyph unicode="u" horiz-adv-x="1167" d="M18 803v65l295 80h90v-669q0 -168 121 -168q59 0 108.5 30.5t131.5 118.5v543h-105v74l271 71h74v-823h143v-68l-295 -73h-88v172q-104 -109 -171 -146t-161 -37q-268 0 -268 265v565h-146z" />
<glyph unicode="v" horiz-adv-x="905" d="M0 842v86h397v-86h-88l207 -510l197 510h-123v86h315v-86h-90l-330 -869h-79l-351 869h-55z" />
<glyph unicode="w" horiz-adv-x="1445" d="M0 842v86h395v-86h-86l207 -506l150 383l-52 123h-104v86h428v-86h-88l211 -518l194 518h-122v86h313v-86h-90l-328 -869h-63l-248 615l-236 -615h-75l-351 869h-55z" />
<glyph unicode="x" horiz-adv-x="894" d="M0 0v86h88l258 336l-250 420h-76v86h431v-86h-84l133 -221l170 221h-84v86h295v-86h-88l-238 -312l264 -444h76v-86h-420v86h74l-148 244l-190 -244h106v-86h-317z" />
<glyph unicode="y" horiz-adv-x="907" d="M0 842v86h432v-86h-106l202 -496l193 496h-129v86h315v-86h-84l-342 -889q-39 -102 -90 -200.5t-100 -166.5l-88 -110l-135 141q141 88 196 157.5t83 122t59 132.5l-332 813h-74z" />
<glyph unicode="z" horiz-adv-x="960" d="M78 0v76l504 745h-387l-25 -159h-88l43 307h88l-6 -41h678v-62l-508 -762h416v148l88 -2v-250h-803z" />
<glyph unicode="{" horiz-adv-x="837" d="M90 475v74h76q158 0 158 239v463q0 272 266 273h168v-84h-80q-150 0 -150 -199v-467q0 -137 -38.5 -192.5t-151.5 -69.5q109 -14 149.5 -69.5t40.5 -192.5v-475q0 -201 150 -201h80v-98h-168q-266 0 -266 274v486q0 240 -158 239h-76z" />
<glyph unicode="|" d="M178 -524v2048h156v-2048h-156z" />
<glyph unicode="}" horiz-adv-x="837" d="M84 1425v99h170q266 0 266 -273v-485q0 -240 158 -240h76v-73h-76q-158 0 -158 -240v-463q0 -272 -266 -272h-168v84h80q150 0 149 198v467q0 137 40 191.5t151 70.5q-111 16 -152 70.5t-41 190.5v477q0 199 -147 198h-82z" />
<glyph unicode="~" horiz-adv-x="929" d="M55 1141q74 88 133.5 125t126.5 37q63 0 97 -19l77 -49q55 -35 125 -35q51 0 76 12.5t78 63.5l57 -64q-74 -86 -134 -120.5t-138 -34.5q-90 0 -152.5 41t-81 49t-47.5 8q-77 0 -155 -78z" />
<glyph unicode="&#xa1;" horiz-adv-x="540" d="M135 -487l70 1114h125l78 -1114h-273zM156 928q0 49 32.5 81.5t83.5 32.5q47 0 82 -32.5t35 -81.5q0 -47 -35 -82t-82 -35q-49 0 -82.5 34t-33.5 83z" />
<glyph unicode="&#xa2;" horiz-adv-x="907" d="M41 442q0 217 142.5 363.5t351.5 146.5h28l27 154h94l-29 -160q66 -10 107 -25.5t115 -58.5l-123 -147q-35 45 -55.5 63.5t-67.5 42.5l-135 -702q35 -6 61.5 -9.5t42.5 -3.5q49 0 93 14.5t124 57.5l49 -90q-106 -66 -182 -90.5t-168 -24.5l-47 4l-29 -153h-94l35 170 q-164 39 -252 155.5t-88 292.5zM289 467q0 -200 119 -315l133 692q-252 -90 -252 -377z" />
<glyph unicode="&#xa3;" horiz-adv-x="1179" d="M-14 -463q0 59 63.5 108.5t171.5 75.5q41 86 84 240l62 227h-250l33 97l249 41l236 843q43 154 151.5 242t257.5 88q117 0 191 -43t74 -113q0 -31 -18.5 -59.5t-49.5 -44.5t-61 -16q-82 0 -104.5 88t-53.5 88q-39 0 -95.5 -87t-84.5 -190l-217 -796h391l-41 -138h-383 l-90 -299q-16 -53 -28.5 -78.5t-51.5 -78.5h10q72 0 117 -12.5t127 -53.5t118.5 -53t75.5 -12q82 0 82 57q0 27 -18.5 58.5t-61.5 74.5l185 119q88 -119 88 -199q0 -106 -94.5 -169.5t-255.5 -63.5q-70 0 -122 12t-100 43l-92 57q-47 31 -125 41q-80 -82 -150.5 -118.5 t-152.5 -36.5q-68 0 -67 61z" />
<glyph unicode="&#xa4;" horiz-adv-x="1265" d="M37 803v61l141 47v121q0 186 128 304t329 118q160 0 276 -65q76 68 151 96t175 28q86 0 143.5 -16t159.5 -72l-133 -168q-63 59 -104 88t-115 66q-117 -20 -142.5 -78.5t-25.5 -296.5v-129h209l2 -104h-211v-717h170v-86h-531v86h121v717h-362v-717h121v-86h-482v86h121 v717h-141zM418 907h362v170q0 88 4 105l13 35q-63 53 -108.5 84.5t-102.5 62.5q-104 -29 -136 -98.5t-32 -274.5v-84z" />
<glyph unicode="&#xa5;" horiz-adv-x="1259" d="M16 1352h510v-86h-118l288 -453l275 453h-137v86h409v-86h-117l-346 -561h299v-97h-303v-176h303v-102h-303v-244h127v-86h-504v86h127v244h-301v102h301v176h-301v97h258l-368 561h-97z" />
<glyph unicode="&#xa7;" horiz-adv-x="811" d="M6 -369l137 115q66 -82 111 -112.5t102 -30.5q229 0 230 336q0 100 -24.5 233t-88 373.5t-93.5 378t-30 198.5t12.5 97.5t55.5 91.5l84 -17q-6 -20 -8 -41.5t-2 -38.5q0 -123 55 -327l110 -408q35 -129 55.5 -264t20.5 -240q0 -145 -30.5 -232t-101.5 -150.5t-126 -84 t-143 -20.5q-125 0 -185.5 26.5t-140.5 116.5zM84 1026q0 236 104.5 363t298.5 127q119 0 183.5 -29t142.5 -117l-139 -115q-33 63 -92.5 102.5t-124.5 39.5q-223 0 -224 -334q0 -184 89.5 -523t118 -467t28.5 -194q0 -100 -68 -188l-84 16q10 49 11 80q0 57 -14.5 141 t-41.5 185l-110 409q-37 133 -57.5 266.5t-20.5 237.5z" />
<glyph unicode="&#xa8;" horiz-adv-x="831" d="M117 1171q0 51 34.5 86t84.5 35q51 0 85.5 -34.5t34.5 -86.5q0 -49 -34.5 -83.5t-85.5 -34.5q-49 0 -84 34.5t-35 83.5zM475 1171q0 51 35 86t84 35q51 0 86 -34.5t35 -86.5q0 -49 -35 -83.5t-86 -34.5q-49 0 -84 34.5t-35 83.5z" />
<glyph unicode="&#xa9;" horiz-adv-x="2048" d="M184 498q0 348 246 593.5t594 245.5t594 -245.5t246 -593.5t-245 -595t-595 -247q-348 0 -594 245.5t-246 596.5zM315 498q0 -295 208 -503t501 -208q295 0 502 207t207 504q0 295 -207 501.5t-502 206.5t-502 -206.5t-207 -501.5zM535 487q0 203 153.5 354.5 t358.5 151.5q113 0 219 -55v57h100v-295h-102v142q-63 35 -106.5 49t-90.5 14q-147 0 -247.5 -118.5t-100.5 -294.5q0 -184 104.5 -305t266.5 -121q49 0 82.5 12t95.5 53v145h102v-219q-106 -47 -175 -65.5t-140 -18.5q-227 0 -373.5 144.5t-146.5 369.5z" />
<glyph unicode="&#xaa;" horiz-adv-x="1783" d="M43 799v61l139 49v127q0 121 39 200t151.5 150.5t268.5 71.5q176 0 285 -67q80 66 154.5 94t172.5 28q94 0 170 -26.5t185 -95.5l-144 -177q-92 82 -134 114t-130 83q-111 -27 -143.5 -95.5t-32.5 -279.5v-129h383l141 37h76v-858h125v-86h-485v86h120v717h-360v-717h119 v-86h-479v86h118v717h-360v-717h121v-86h-482v86h121v713h-139zM422 907h360v168q0 47 4.5 75t16.5 62q-49 55 -96.5 90t-114.5 64q-113 -33 -141.5 -95.5t-28.5 -281.5v-82z" />
<glyph unicode="&#xab;" horiz-adv-x="1007" d="M4 459l561 393v-84l-243 -309l243 -309v-87zM444 459l562 393v-84l-244 -309l244 -309v-87z" />
<glyph unicode="&#xad;" horiz-adv-x="563" d="M66 354v230h426v-230h-426z" />
<glyph unicode="&#xae;" horiz-adv-x="2048" d="M184 469q0 348 245 595t595 247q348 0 594 -246t246 -596q0 -348 -246 -594t-594 -246t-594 246t-246 594zM315 469q0 -295 207 -502t502 -207t502 207t207 502t-208 503t-501 208q-295 0 -502 -207t-207 -504zM608 0v76h144v803h-144v75h406q352 0 352 -254 q0 -197 -223 -258l190 -325q27 -41 68 -41h67v-76h-237l-240 422h-96v-346h141v-76h-428zM895 506h125q84 0 137 49t53 131q0 184 -213 184h-102v-364z" />
<glyph unicode="&#xb0;" horiz-adv-x="681" d="M88 1112q0 109 75 183.5t183 74.5q98 0 169 -70.5t71 -169.5q0 -109 -74.5 -183.5t-183.5 -74.5q-100 0 -170 70t-70 170zM209 1120q0 -51 37 -90t90 -39q55 0 92 37t37 92t-37 92t-92 37q-53 0 -90 -36.5t-37 -92.5z" />
<glyph unicode="&#xb1;" horiz-adv-x="1126" d="M78 0v168h971v-168h-971zM78 532v168h401v320h168v-320h402v-168h-402v-319h-168v319h-401z" />
<glyph unicode="&#xb4;" horiz-adv-x="681" d="M125 1083l244 330h225l-326 -330h-143z" />
<glyph unicode="&#xb5;" horiz-adv-x="2048" d="M334 670l1425 745v-1493z" />
<glyph unicode="&#xb6;" horiz-adv-x="1318" d="M115 999q0 219 143 364.5t363 145.5h579l2 -112h-160v-1921h-129v1923h-122v-1923h-129v1026h-87q-178 0 -319 151.5t-141 345.5z" />
<glyph unicode="&#xba;" horiz-adv-x="1773" d="M39 803v63l147 47v117q0 195 127 309.5t346 114.5q90 0 141.5 -12t112.5 -51q143 123 318 122q70 0 106.5 -9t100.5 -29l100 34h82v-1423h121l-2 -86h-479v86h120v717h-360v-717h121v-86h-482v86h121v717h-362v-717h121v-86h-482v86h121v717h-139zM418 907h362v170 q0 49 2 69.5t15 70.5q-66 61 -112 92.5t-97 54.5q-104 -29 -137 -97.5t-33 -271.5v-88zM1020 907h360v375q-61 53 -86.5 71.5t-101.5 57.5q-111 -27 -141.5 -93.5t-30.5 -279.5v-131z" />
<glyph unicode="&#xbb;" horiz-adv-x="1024" d="M0 63v87l242 309l-242 309v84l561 -393zM440 63v87l244 309l-244 309v84l561 -393z" />
<glyph unicode="&#xbf;" horiz-adv-x="837" d="M117 117q0 147 76.5 236t203.5 89h97l36 187h88v-391h-339q-6 -33 -7 -66q0 -100 45 -181t118 -121t115 -54.5t159 -38.5l-91 -262q-102 27 -153 51t-138 97t-148.5 199t-61.5 255zM461 924q0 49 34 84.5t83 35.5q47 0 81.5 -34.5t34.5 -81.5q0 -49 -32.5 -84t-81.5 -35 t-84 32.5t-35 82.5z" />
<glyph unicode="&#xc0;" horiz-adv-x="1376" d="M0 0v86h127l528 1309h125l508 -1309h86v-86h-500v86h144l-127 332h-498l-133 -332h164v-86h-424zM346 1735h225l244 -330h-145zM442 543h402l-195 512z" />
<glyph unicode="&#xc1;" horiz-adv-x="1376" d="M0 0v86h127l528 1309h125l508 -1309h86v-86h-500v86h144l-127 332h-498l-133 -332h164v-86h-424zM442 543h402l-195 512zM465 1409l244 330h223l-324 -330h-143z" />
<glyph unicode="&#xc2;" horiz-adv-x="1376" d="M0 0v86h127l528 1309h125l508 -1309h86v-86h-500v86h144l-127 332h-498l-133 -332h164v-86h-424zM434 1436l230 338h122l222 -338h-107l-176 180l-174 -180h-117zM442 543h402l-195 512z" />
<glyph unicode="&#xc3;" horiz-adv-x="1376" d="M0 0v86h127l528 1309h125l508 -1309h86v-86h-500v86h144l-127 332h-498l-133 -332h164v-86h-424zM348 1579q74 88 132.5 124t125.5 36q63 0 96 -19l78 -49q59 -35 127 -35q49 0 74 12.5t78 65.5l59 -63q-74 -88 -134 -123t-140 -35q-90 0 -152.5 42t-80 49t-48.5 7 q-77 0 -155 -78zM442 543h402l-195 512z" />
<glyph unicode="&#xc4;" horiz-adv-x="1376" d="M0 0v86h127l528 1309h125l508 -1309h86v-86h-500v86h144l-127 332h-498l-133 -332h164v-86h-424zM354 1487q0 49 36 85t85 36t84 -35t35 -86t-35 -86t-84 -35q-51 0 -86 35t-35 86zM442 543h402l-195 512zM713 1487q0 49 35.5 85t85.5 36q49 0 83.5 -35t34.5 -86 t-34.5 -86t-83.5 -35q-51 0 -86 35t-35 86z" />
<glyph unicode="&#xc5;" horiz-adv-x="1376" d="M0 0v86h127l528 1309h125l508 -1309h86v-86h-500v86h144l-127 332h-498l-133 -332h164v-86h-424zM442 543h402l-195 512zM537 1642q0 74 53 127.5t127 53.5q76 0 128 -52.5t52 -128.5t-52 -128t-128 -52q-74 0 -127 53.5t-53 126.5zM623 1642q0 -39 27.5 -66.5 t66.5 -27.5q41 0 67.5 27t26.5 67q0 39 -26.5 68t-67.5 29q-39 0 -66.5 -28t-27.5 -69z" />
<glyph unicode="&#xc6;" horiz-adv-x="1806" d="M0 0v86h121l624 1176h-163v90h981v49h112v-328h-112v158h-428v-488h333v142h111v-404h-111v142h-333v-502h448l2 147h109v-268h-977v86h153v326h-446l-172 -326h158v-86h-410zM492 539h378v716z" />
<glyph unicode="&#xc7;" horiz-adv-x="1372" d="M84 668q0 307 206 504.5t523 197.5q96 0 169 -14.5t169 -52.5v83l111 3l2 -347l-111 -2l-2 113q-96 66 -149.5 85t-133.5 19q-223 0 -358 -156.5t-135 -414.5q0 -254 146.5 -423t365.5 -169q74 0 122 14.5t146 65.5v156h113l2 -271q-127 -47 -218 -65.5t-186 -18.5h-24 l-90 -122q72 -8 112.5 -49.5t40.5 -106.5q0 -82 -75.5 -141.5t-180.5 -59.5q-72 0 -172 39l68 105q55 -57 98 -58q43 0 72.5 32t29.5 75q0 117 -151 116h-10l135 179q-158 23 -238 57.5t-238.5 175.5t-158.5 451z" />
<glyph unicode="&#xc8;" horiz-adv-x="1189" d="M102 0v86h156v1180h-156v86h844v57h111v-326h-109v148h-426v-483h328v139l111 2v-404l-111 -2v144h-328v-506h445v151h110v-272h-975zM176 1726h225l244 -329h-145z" />
<glyph unicode="&#xc9;" horiz-adv-x="1189" d="M102 0v86h156v1180h-156v86h844v57h111v-326h-109v148h-426v-483h328v139l111 2v-404l-111 -2v144h-328v-506h445v151h110v-272h-975zM391 1405l244 330h225l-325 -330h-144z" />
<glyph unicode="&#xca;" horiz-adv-x="1189" d="M102 0v86h156v1180h-156v86h844v57h111v-326h-109v148h-426v-483h328v139l111 2v-404l-111 -2v144h-328v-506h445v151h110v-272h-975zM289 1485l231 338h123l219 -338h-106l-174 180l-176 -180h-117z" />
<glyph unicode="&#xcb;" horiz-adv-x="1189" d="M102 0v86h156v1180h-156v86h844v57h111v-326h-109v148h-426v-483h328v139l111 2v-404l-111 -2v144h-328v-506h445v151h110v-272h-975zM254 1589q0 51 35 86t86 35q49 0 85 -36t36 -85t-35 -84t-86 -35q-47 0 -84 35t-37 84zM629 1589q0 51 34.5 86t86.5 35q51 0 85.5 -35 t34.5 -86q0 -49 -34.5 -84t-85.5 -35q-47 0 -84 35t-37 84z" />
<glyph unicode="&#xcc;" horiz-adv-x="761" d="M53 1735h226l243 -330h-145zM94 0v86h156v1180h-156v86h574v-86h-154v-1180h154v-86h-574z" />
<glyph unicode="&#xcd;" horiz-adv-x="761" d="M94 0v86h156v1180h-156v86h574v-86h-154v-1180h154v-86h-574zM229 1405l244 330h225l-325 -330h-144z" />
<glyph unicode="&#xce;" horiz-adv-x="761" d="M94 0v86h156v1180h-156v86h574v-86h-154v-1180h154v-86h-574zM96 1466l230 338h125l219 -338h-107l-176 181l-174 -181h-117z" />
<glyph unicode="&#xcf;" horiz-adv-x="761" d="M94 0v86h156v1180h-156v86h574v-86h-154v-1180h154v-86h-574zM94 1495q0 49 36 85t85 36t84 -35t35 -86t-35 -86t-84 -35q-51 0 -86 35t-35 86zM453 1495q0 49 35.5 85t84.5 36t85 -36t36 -85q0 -51 -35 -86t-86 -35t-85.5 35t-34.5 86z" />
<glyph unicode="&#xd1;" horiz-adv-x="1509" d="M68 1266v86h407l664 -944v858h-162v86h463v-86h-172v-1289h-144l-712 1004v-895h161v-86h-462v86h170v1075l-66 105h-147zM352 1522q72 86 132.5 123.5t127.5 37.5q63 0 97 -18l77 -49q27 -16 57.5 -25.5t67.5 -9.5q51 0 76 12.5t76 63.5l59 -64q-74 -86 -134 -120.5 t-140 -34.5q-88 0 -150.5 41t-81 49t-49.5 8q-75 0 -155 -78z" />
<glyph unicode="&#xd2;" horiz-adv-x="1521" d="M86 676q0 295 196.5 497.5t479.5 202.5t480.5 -203.5t197.5 -496.5t-196.5 -498t-481.5 -205q-283 0 -479.5 205t-196.5 498zM326 1733h225l244 -330h-144zM375 676q0 -233 116.5 -409.5t270.5 -176.5q156 0 272.5 176t116.5 410q0 231 -116.5 407.5t-272.5 176.5 q-154 0 -270.5 -176.5t-116.5 -407.5z" />
<glyph unicode="&#xd3;" horiz-adv-x="1521" d="M86 676q0 295 196.5 497.5t479.5 202.5t480.5 -203.5t197.5 -496.5t-196.5 -498t-481.5 -205q-283 0 -479.5 205t-196.5 498zM375 676q0 -233 116.5 -409.5t270.5 -176.5q156 0 272.5 176t116.5 410q0 231 -116.5 407.5t-272.5 176.5q-154 0 -270.5 -176.5t-116.5 -407.5 zM518 1407l244 330h225l-325 -330h-144z" />
<glyph unicode="&#xd4;" horiz-adv-x="1521" d="M86 676q0 295 196.5 497.5t479.5 202.5t480.5 -203.5t197.5 -496.5t-196.5 -498t-481.5 -205q-283 0 -479.5 205t-196.5 498zM375 676q0 -233 116.5 -409.5t270.5 -176.5q156 0 272.5 176t116.5 410q0 231 -116.5 407.5t-272.5 176.5q-154 0 -270.5 -176.5t-116.5 -407.5 zM465 1468l231 338h123l219 -338h-106l-174 181l-176 -181h-117z" />
<glyph unicode="&#xd5;" horiz-adv-x="1521" d="M86 676q0 295 196.5 497.5t479.5 202.5t480.5 -203.5t197.5 -496.5t-196.5 -498t-481.5 -205q-283 0 -479.5 205t-196.5 498zM375 676q0 -233 116.5 -409.5t270.5 -176.5q156 0 272.5 176t116.5 410q0 231 -116.5 407.5t-272.5 176.5q-154 0 -270.5 -176.5t-116.5 -407.5 zM387 1540q72 86 132.5 124t127.5 38q63 0 96 -19l78 -49q59 -35 125 -35q51 0 76 12.5t78 63.5l57 -63q-74 -86 -134 -121t-138 -35q-90 0 -152.5 41t-81 49t-47.5 8q-77 1 -155 -77z" />
<glyph unicode="&#xd6;" horiz-adv-x="1521" d="M86 676q0 295 196.5 497.5t479.5 202.5t480.5 -203.5t197.5 -496.5t-196.5 -498t-481.5 -205q-283 0 -479.5 205t-196.5 498zM348 1540q0 51 35 86t86 35t86 -35t35 -86q0 -49 -35 -84t-86 -35q-47 0 -84 35t-37 84zM375 676q0 -233 116.5 -409.5t270.5 -176.5 q156 0 272.5 176t116.5 410q0 231 -116.5 407.5t-272.5 176.5q-154 0 -270.5 -176.5t-116.5 -407.5zM930 1540q0 51 34.5 86t86.5 35q49 0 83.5 -35t34.5 -86q0 -49 -34.5 -84t-83.5 -35q-51 0 -86 35t-35 84z" />
<glyph unicode="&#xd8;" horiz-adv-x="1529" d="M72 -49l202 233q-190 190 -190 484q0 297 196.5 497.5t487.5 200.5q119 0 206 -30.5t206 -114.5l202 239l76 -67l-209 -236q193 -199 193 -487q0 -289 -197.5 -493t-478.5 -204q-232 1 -422 148l-199 -236zM371 670q0 -84 10 -137t51 -166l608 698q-115 184 -276 184 q-156 0 -274.5 -174t-118.5 -405zM481 274q135 -186 283 -186q152 0 269.5 175t117.5 405q0 80 -12.5 141t-48.5 166z" />
<glyph unicode="&#xd9;" horiz-adv-x="1597" d="M102 1266v86h574v-86h-154v-764q0 -158 31 -236t109.5 -119t171.5 -41q186 0 287.5 103.5t101.5 292.5v762h-170v88h475v-86h-172v-770q0 -340 -196.5 -431.5t-354.5 -91.5q-250 0 -398.5 126t-148.5 339v828h-156zM416 1726h225l242 -329h-144z" />
<glyph unicode="&#xda;" horiz-adv-x="1597" d="M102 1266v86h574v-86h-154v-764q0 -158 31 -236t109.5 -119t171.5 -41q186 0 287.5 103.5t101.5 292.5v762h-170v88h475v-86h-172v-770q0 -340 -196.5 -431.5t-354.5 -91.5q-250 0 -398.5 126t-148.5 339v828h-156zM653 1393l244 329h225l-325 -329h-144z" />
<glyph unicode="&#xdb;" horiz-adv-x="1597" d="M102 1266v86h574v-86h-154v-764q0 -158 31 -236t109.5 -119t171.5 -41q186 0 287.5 103.5t101.5 292.5v762h-170v88h475v-86h-172v-770q0 -340 -196.5 -431.5t-354.5 -91.5q-250 0 -398.5 126t-148.5 339v828h-156zM567 1489l232 338h123l219 -338h-107l-174 180 l-176 -180h-117z" />
<glyph unicode="&#xdc;" horiz-adv-x="1597" d="M102 1266v86h574v-86h-154v-764q0 -158 31 -236t109.5 -119t171.5 -41q186 0 287.5 103.5t101.5 292.5v762h-170v88h475v-86h-172v-770q0 -340 -196.5 -431.5t-354.5 -91.5q-250 0 -398.5 126t-148.5 339v828h-156zM424 1542q0 51 35 86t86 35q49 0 85 -36t36 -85 t-35 -84t-86 -35q-47 0 -84 35t-37 84zM961 1542q0 51 34.5 86t85.5 35q49 0 84 -35t35 -86q0 -49 -35 -84t-84 -35q-51 0 -85.5 35t-34.5 84z" />
<glyph unicode="&#xdf;" horiz-adv-x="1239" d="M45 803v65l143 45v166q0 190 124 312t317 122q178 0 299 -86t121 -215q0 -113 -125 -196l-121 -84q-88 -59 -88 -135q0 -57 45 -102.5t173 -102.5t184.5 -125t56.5 -180q0 -145 -106.5 -229.5t-291.5 -84.5q-92 0 -151.5 20.5t-143.5 80.5l109 166q84 -145 217 -146 q68 0 113 33t45 86q0 39 -20.5 65.5t-78.5 55.5l-100 55q-139 76 -189.5 140.5t-50.5 162.5q0 82 37 154t118 158t101.5 121.5t20.5 80.5q0 66 -45 113t-156 96q-106 -31 -139 -100.5t-33 -272.5v-1042h-362v86h120v717h-143z" />
<glyph unicode="&#xe0;" horiz-adv-x="935" d="M35 211q0 193 198 238l299 67v217q0 76 -22.5 108.5t-77.5 32.5q-29 0 -46 -4t-56 -22v-103l-234 -57q-16 29 -16 57q0 92 97 149.5t257 57.5q338 0 338 -225v-621h123v-67l-137 -43q-45 -14 -96 -14q-109 0 -123 112q-49 -63 -107.5 -92t-138.5 -29q-119 0 -188.5 63.5 t-69.5 174.5zM135 1413h223l244 -330h-143zM268 233q0 -59 29 -96t76 -37q37 0 72.5 18.5t86.5 67.5v226l-264 -62v-117z" />
<glyph unicode="&#xe1;" horiz-adv-x="935" d="M35 211q0 193 198 238l299 67v217q0 76 -22.5 108.5t-77.5 32.5q-29 0 -46 -4t-56 -22v-103l-234 -57q-16 29 -16 57q0 92 97 149.5t257 57.5q338 0 338 -225v-621h123v-67l-137 -43q-45 -14 -96 -14q-109 0 -123 112q-49 -63 -107.5 -92t-138.5 -29q-119 0 -188.5 63.5 t-69.5 174.5zM260 1083l244 330h223l-324 -330h-143zM268 233q0 -59 29 -96t76 -37q37 0 72.5 18.5t86.5 67.5v226l-264 -62v-117z" />
<glyph unicode="&#xe2;" horiz-adv-x="935" d="M35 211q0 193 198 238l299 67v217q0 76 -22.5 108.5t-77.5 32.5q-29 0 -46 -4t-56 -22v-103l-234 -57q-16 29 -16 57q0 92 97 149.5t257 57.5q338 0 338 -225v-621h123v-67l-137 -43q-45 -14 -96 -14q-109 0 -123 112q-49 -63 -107.5 -92t-138.5 -29q-119 0 -188.5 63.5 t-69.5 174.5zM172 1083l229 338h123l221 -338h-106l-176 181l-174 -181h-117zM268 233q0 -59 29 -96t76 -37q37 0 72.5 18.5t86.5 67.5v226l-264 -62v-117z" />
<glyph unicode="&#xe3;" horiz-adv-x="935" d="M35 211q0 193 198 238l299 67v217q0 76 -22.5 108.5t-77.5 32.5q-29 0 -46 -4t-56 -22v-103l-234 -57q-16 29 -16 57q0 92 97 149.5t257 57.5q338 0 338 -225v-621h123v-67l-137 -43q-45 -14 -96 -14q-109 0 -123 112q-49 -63 -107.5 -92t-138.5 -29q-119 0 -188.5 63.5 t-69.5 174.5zM68 1141q133 162 260 162q66 0 94 -19l78 -49q55 -35 127 -35q49 0 73.5 12.5t77.5 63.5l60 -64q-74 -86 -134.5 -120.5t-140.5 -34.5q-90 0 -152.5 42t-80 49t-47.5 7q-76 0 -156 -78zM268 233q0 -59 29 -96t76 -37q37 0 72.5 18.5t86.5 67.5v226l-264 -62 v-117z" />
<glyph unicode="&#xe4;" horiz-adv-x="935" d="M35 211q0 193 198 238l299 67v217q0 76 -22.5 108.5t-77.5 32.5q-29 0 -46 -4t-56 -22v-103l-234 -57q-16 29 -16 57q0 92 97 149.5t257 57.5q338 0 338 -225v-621h123v-67l-137 -43q-45 -14 -96 -14q-109 0 -123 112q-49 -63 -107.5 -92t-138.5 -29q-119 0 -188.5 63.5 t-69.5 174.5zM145 1174q0 51 35 85.5t86 34.5t86 -34.5t35 -85.5q0 -49 -36 -85t-85 -36t-85 35.5t-36 85.5zM268 233q0 -59 29 -96t76 -37q37 0 72.5 18.5t86.5 67.5v226l-264 -62v-117zM504 1174q0 51 34.5 85.5t86.5 34.5q51 0 85.5 -34.5t34.5 -85.5q0 -49 -35.5 -85 t-84.5 -36t-85 35.5t-36 85.5z" />
<glyph unicode="&#xe5;" horiz-adv-x="935" d="M35 211q0 193 198 238l299 67v217q0 76 -22.5 108.5t-77.5 32.5q-29 0 -46 -4t-56 -22v-103l-234 -57q-16 29 -16 57q0 92 97 149.5t257 57.5q338 0 338 -225v-621h123v-67l-137 -43q-45 -14 -96 -14q-109 0 -123 112q-49 -63 -107.5 -92t-138.5 -29q-119 0 -188.5 63.5 t-69.5 174.5zM264 1202q0 74 53.5 127t126.5 53q76 0 128.5 -52t52.5 -128t-52.5 -128t-128.5 -52q-74 0 -127 53t-53 127zM268 233q0 -59 29 -96t76 -37q37 0 72.5 18.5t86.5 67.5v226l-264 -62v-117zM350 1202q0 -39 27.5 -66.5t66.5 -27.5q41 0 69 27.5t28 66.5 q0 41 -27 67.5t-70 26.5q-37 0 -65.5 -26.5t-28.5 -67.5z" />
<glyph unicode="&#xe6;" horiz-adv-x="1437" d="M43 211q0 90 55.5 155.5t143.5 79.5l299 50v235q0 80 -21.5 110.5t-77.5 30.5q-41 0 -104 -26v-103l-234 -57q-20 39 -20 62q0 90 101.5 146t267.5 56q98 0 154.5 -16t111.5 -62q76 41 133 57.5t129 16.5q182 0 290.5 -96t108.5 -256v-59l-618 -105q14 -156 97 -247 t210 -91q68 0 126 22.5t146 86.5l45 -92q-145 -86 -217.5 -111t-183.5 -25q-141 0 -226 37t-151 131q-74 -90 -143.5 -129t-155.5 -39q-123 0 -194.5 63.5t-71.5 174.5zM276 231q0 -53 31 -92t76 -39q37 0 75 22.5t105 86.5q-23 61 -22 129v53l-265 -45v-115zM760 535 l366 65v59q0 199 -143 199q-98 0 -160.5 -89t-62.5 -234z" />
<glyph unicode="&#xe7;" horiz-adv-x="884" d="M43 446q0 221 142.5 361.5t365.5 140.5q96 0 158.5 -18.5t148.5 -75.5l-131 -129q-53 51 -86 73.5t-100 59.5q-242 -106 -242 -364q0 -162 88 -283t203 -121q49 0 94 16.5t123 63.5l53 -90q-115 -55 -162 -71.5t-137 -33.5l-92 -106q74 0 121 -41t47 -104 q0 -92 -72.5 -148.5t-189.5 -56.5q-47 0 -69.5 4t-94.5 22l59 113l15 -16q29 -29 45 -37t49 -8q39 0 67.5 32.5t28.5 77.5q0 43 -46 76t-107 33h-19l150 159q-193 29 -301.5 154t-108.5 317z" />
<glyph unicode="&#xe8;" horiz-adv-x="944" d="M43 459q0 225 128 359t341 134q180 0 287.5 -101t107.5 -271v-78h-612q0 -190 80 -301t219 -111q59 0 103 17.5t171 93.5l47 -90q-152 -84 -230.5 -111t-184.5 -27q-207 0 -332 133.5t-125 352.5zM156 1413h225l244 -330h-144zM297 606h356v49q0 92 -40 150.5t-103 58.5 q-82 0 -140.5 -70.5t-72.5 -187.5z" />
<glyph unicode="&#xe9;" horiz-adv-x="944" d="M43 459q0 225 128 359t341 134q180 0 287.5 -101t107.5 -271v-78h-612q0 -190 80 -301t219 -111q59 0 103 17.5t171 93.5l47 -90q-152 -84 -230.5 -111t-184.5 -27q-207 0 -332 133.5t-125 352.5zM297 606h356v49q0 92 -40 150.5t-103 58.5q-82 0 -140.5 -70.5 t-72.5 -187.5zM319 1083l244 330h223l-323 -330h-144z" />
<glyph unicode="&#xea;" horiz-adv-x="944" d="M43 459q0 225 128 359t341 134q180 0 287.5 -101t107.5 -271v-78h-612q0 -190 80 -301t219 -111q59 0 103 17.5t171 93.5l47 -90q-152 -84 -230.5 -111t-184.5 -27q-207 0 -332 133.5t-125 352.5zM240 1083l229 338h125l219 -338h-106l-177 181l-174 -181h-116zM297 606 h356v49q0 92 -40 150.5t-103 58.5q-82 0 -140.5 -70.5t-72.5 -187.5z" />
<glyph unicode="&#xeb;" horiz-adv-x="944" d="M43 459q0 225 128 359t341 134q180 0 287.5 -101t107.5 -271v-78h-612q0 -190 80 -301t219 -111q59 0 103 17.5t171 93.5l47 -90q-152 -84 -230.5 -111t-184.5 -27q-207 0 -332 133.5t-125 352.5zM203 1171q0 51 34.5 86t86.5 35q51 0 85.5 -34.5t34.5 -86.5 q0 -49 -34.5 -83.5t-85.5 -34.5q-47 0 -84 34.5t-37 83.5zM297 606h356v49q0 92 -40 150.5t-103 58.5q-82 0 -140.5 -70.5t-72.5 -187.5zM561 1171q0 51 35 86t86 35t86 -34.5t35 -86.5q0 -49 -35 -83.5t-86 -34.5q-47 0 -84 34.5t-37 83.5z" />
<glyph unicode="&#xec;" horiz-adv-x="577" d="M12 1413h226l243 -330h-145zM45 803v65l295 80h80v-862h121v-86h-482v86h121v717h-135z" />
<glyph unicode="&#xed;" horiz-adv-x="577" d="M45 803v65l295 80h80v-862h121v-86h-482v86h121v717h-135zM133 1083l244 330h223l-324 -330h-143z" />
<glyph unicode="&#xee;" horiz-adv-x="577" d="M18 1083l230 338h123l221 -338h-107l-176 181l-174 -181h-117zM45 803v65l295 80h80v-862h121v-86h-482v86h121v717h-135z" />
<glyph unicode="&#xef;" horiz-adv-x="577" d="M12 1171q0 51 35 86t86 35q49 0 85 -35.5t36 -85.5q0 -49 -35 -83.5t-86 -34.5t-86 34.5t-35 83.5zM45 803v65l295 80h80v-862h121v-86h-482v86h121v717h-135zM328 1171q0 51 34.5 86t86.5 35q49 0 83.5 -34.5t34.5 -86.5q0 -49 -34.5 -83.5t-83.5 -34.5q-51 0 -86 34.5 t-35 83.5z" />
<glyph unicode="&#xf1;" horiz-adv-x="1189" d="M45 803v65l295 80h90v-168q100 102 167 137t165 35q266 0 266 -256v-610h121v-86h-481v86h120v571q0 94 -22.5 128t-87.5 34q-63 0 -102 -23.5t-146 -123.5v-586h119v-86h-481v86h120v717h-143zM199 1141q74 88 133 125t127 37q63 0 96 -19l78 -49q55 -35 125 -35 q51 0 75.5 12.5t77.5 63.5l58 -64q-74 -86 -134.5 -120.5t-138.5 -34.5q-90 0 -152.5 41t-81 49t-46.5 8q-78 0 -156 -78z" />
<glyph unicode="&#xf2;" horiz-adv-x="1034" d="M43 463q0 215 133 352t340 137t341 -138t134 -351t-134 -351.5t-341 -138.5t-340 137.5t-133 352.5zM207 1413h225l244 -330h-144zM303 463q0 -170 59.5 -278.5t153.5 -108.5t153.5 107.5t59.5 279.5t-59.5 280.5t-153.5 108.5t-153.5 -108.5t-59.5 -280.5z" />
<glyph unicode="&#xf3;" horiz-adv-x="1034" d="M43 463q0 215 133 352t340 137t341 -138t134 -351t-134 -351.5t-341 -138.5t-340 137.5t-133 352.5zM303 463q0 -170 59.5 -278.5t153.5 -108.5t153.5 107.5t59.5 279.5t-59.5 280.5t-153.5 108.5t-153.5 -108.5t-59.5 -280.5zM309 1083l244 330h225l-325 -330h-144z" />
<glyph unicode="&#xf4;" horiz-adv-x="1034" d="M43 463q0 215 133 352t340 137t341 -138t134 -351t-134 -351.5t-341 -138.5t-340 137.5t-133 352.5zM231 1083l232 338h123l219 -338h-107l-174 181l-176 -181h-117zM303 463q0 -170 59.5 -278.5t153.5 -108.5t153.5 107.5t59.5 279.5t-59.5 280.5t-153.5 108.5 t-153.5 -108.5t-59.5 -280.5z" />
<glyph unicode="&#xf5;" horiz-adv-x="1034" d="M43 463q0 215 133 352t340 137t341 -138t134 -351t-134 -351.5t-341 -138.5t-340 137.5t-133 352.5zM131 1141q72 86 132.5 124t127.5 38q63 0 96 -19l78 -49q27 -16 57.5 -25.5t67.5 -9.5q51 0 76 12.5t78 63.5l57 -64q-74 -86 -134 -120.5t-140 -34.5q-88 0 -150.5 41 t-81 49t-47.5 8q-77 0 -155 -78zM303 463q0 -170 59.5 -278.5t153.5 -108.5t153.5 107.5t59.5 279.5t-59.5 280.5t-153.5 108.5t-153.5 -108.5t-59.5 -280.5z" />
<glyph unicode="&#xf6;" horiz-adv-x="1034" d="M43 463q0 215 133 352t340 137t341 -138t134 -351t-134 -351.5t-341 -138.5t-340 137.5t-133 352.5zM195 1171q0 49 34.5 84t85.5 35q49 0 84 -34.5t35 -84.5q0 -51 -35 -85.5t-84 -34.5q-51 0 -85.5 34.5t-34.5 85.5zM303 463q0 -170 59.5 -278.5t153.5 -108.5 t153.5 107.5t59.5 279.5t-59.5 280.5t-153.5 108.5t-153.5 -108.5t-59.5 -280.5zM553 1171q0 49 35 84t86 35q49 0 84 -34.5t35 -84.5q0 -51 -35 -85.5t-84 -34.5q-51 0 -86 34.5t-35 85.5z" />
<glyph unicode="&#xf7;" horiz-adv-x="1126" d="M51 401v168h1024v-168h-1024zM428 98q0 57 40 97.5t97 40.5t97 -40t40 -98q0 -57 -40 -97t-97 -40t-97 40t-40 97zM430 874q0 57 40 97.5t97 40.5t97.5 -40t40.5 -98q0 -57 -40.5 -97t-97.5 -40t-97 40t-40 97z" />
<glyph unicode="&#xf8;" horiz-adv-x="1038" d="M31 -20l131 147q-63 76 -92 155.5t-29 184.5q0 209 133 344t338 135q168 0 283 -84l135 160l76 -68l-136 -155q123 -141 123 -334q0 -213 -135 -352.5t-342 -139.5q-162 0 -285 90l-127 -147zM301 465q0 -58 16 -156l361 412q-68 125 -160 125q-94 0 -155.5 -107.5 t-61.5 -273.5zM352 199q43 -72 79 -98.5t85 -26.5q94 0 153.5 108.5t59.5 284.5q0 49 -2 72.5t-12 81.5z" />
<glyph unicode="&#xf9;" horiz-adv-x="1167" d="M18 803v65l295 80h90v-669q0 -168 121 -168q59 0 108.5 30.5t131.5 118.5v543h-105v74l271 71h74v-823h143v-68l-295 -73h-88v172q-104 -109 -171 -146t-161 -37q-268 0 -268 265v565h-146zM195 1413h225l244 -330h-144z" />
<glyph unicode="&#xfa;" horiz-adv-x="1167" d="M18 803v65l295 80h90v-669q0 -168 121 -168q59 0 108.5 30.5t131.5 118.5v543h-105v74l271 71h74v-823h143v-68l-295 -73h-88v172q-104 -109 -171 -146t-161 -37q-268 0 -268 265v565h-146zM385 1083l242 330h225l-324 -330h-143z" />
<glyph unicode="&#xfb;" horiz-adv-x="1167" d="M18 803v65l295 80h90v-669q0 -168 121 -168q59 0 108.5 30.5t131.5 118.5v543h-105v74l271 71h74v-823h143v-68l-295 -73h-88v172q-104 -109 -171 -146t-161 -37q-268 0 -268 265v565h-146zM281 1083l229 338h125l219 -338h-106l-177 181l-174 -181h-116z" />
<glyph unicode="&#xfc;" horiz-adv-x="1167" d="M18 803v65l295 80h90v-669q0 -168 121 -168q59 0 108.5 30.5t131.5 118.5v543h-105v74l271 71h74v-823h143v-68l-295 -73h-88v172q-104 -109 -171 -146t-161 -37q-268 0 -268 265v565h-146zM229 1174q0 51 35 85.5t86 34.5q49 0 85 -35.5t36 -84.5t-35 -84t-86 -35 q-47 0 -84 34.5t-37 84.5zM635 1171q0 51 35 86t86 35t86 -34.5t35 -86.5q0 -49 -35 -83.5t-86 -34.5q-47 0 -84 34.5t-37 83.5z" />
<glyph unicode="&#xff;" horiz-adv-x="907" d="M0 842v86h432v-86h-106l202 -496l193 496h-129v86h315v-86h-84l-342 -889q-39 -102 -90 -200.5t-100 -166.5l-88 -110l-135 141q141 88 196 157.5t83 122t59 132.5l-332 813h-74zM162 1171q0 51 34.5 86t84.5 35q51 0 85.5 -34.5t34.5 -86.5q0 -49 -34.5 -83.5 t-85.5 -34.5q-49 0 -84 34.5t-35 83.5zM549 1171q0 51 34.5 86t86.5 35q49 0 83.5 -34.5t34.5 -86.5q0 -49 -34.5 -83.5t-83.5 -34.5q-51 0 -86 34.5t-35 83.5z" />
<glyph unicode="&#x152;" horiz-adv-x="1949" d="M84 676q0 287 199.5 492.5t476.5 205.5l102 -6q164 -16 228 -16h610v53h110v-328h-110v148h-428v-477h330v139h116v-406h-116v146h-330v-506h448v155h115v-276h-745q-68 0 -100 -2t-104.5 -12.5t-87 -11.5t-46.5 -1q-276 0 -472 206t-196 497zM375 670q0 -242 117.5 -411 t285.5 -169q129 0 179.5 38t50.5 132v852q0 143 -205 143q-98 0 -166 -36.5t-165 -170t-97 -378.5z" />
<glyph unicode="&#x153;" horiz-adv-x="1593" d="M41 455q0 213 136 353t345 140q182 0 318 -119q82 66 150.5 92.5t166.5 26.5q180 0 294 -101.5t114 -260.5v-86h-623q0 -199 81 -305.5t226 -106.5q59 0 107.5 20.5t161.5 90.5l49 -84q-156 -90 -229.5 -116t-174.5 -26q-201 0 -329 117q-137 -117 -318 -117 q-205 0 -340 137.5t-135 344.5zM305 461q0 -166 60.5 -275.5t150.5 -109.5q96 0 155.5 108.5t59.5 286.5q0 170 -57.5 273.5t-151.5 103.5t-155.5 -108.5t-61.5 -278.5zM946 602h359v66q0 90 -39 141t-109 51q-86 0 -142.5 -68.5t-68.5 -189.5z" />
<glyph unicode="&#x178;" horiz-adv-x="1253" d="M-16 1266v86h573v-86h-151l290 -449l273 449h-174v86h477v-86h-148l-342 -561v-619h156v-86h-573v86h153v565l-405 615h-129zM311 1538q0 51 35 86t84 35q51 0 86 -35t35 -86q0 -49 -35 -84t-86 -35q-49 0 -84 35t-35 84zM776 1542q0 51 35 86t86 35q49 0 84 -35t35 -86 q0 -49 -35 -84t-84 -35q-51 0 -86 35t-35 84z" />
<glyph unicode="&#x2000;" horiz-adv-x="913" />
<glyph unicode="&#x2001;" horiz-adv-x="1827" />
<glyph unicode="&#x2002;" horiz-adv-x="913" />
<glyph unicode="&#x2003;" horiz-adv-x="1827" />
<glyph unicode="&#x2004;" horiz-adv-x="609" />
<glyph unicode="&#x2005;" horiz-adv-x="456" />
<glyph unicode="&#x2006;" horiz-adv-x="304" />
<glyph unicode="&#x2007;" horiz-adv-x="304" />
<glyph unicode="&#x2008;" horiz-adv-x="228" />
<glyph unicode="&#x2009;" horiz-adv-x="365" />
<glyph unicode="&#x200a;" horiz-adv-x="101" />
<glyph unicode="&#x2010;" horiz-adv-x="563" d="M66 354v230h426v-230h-426z" />
<glyph unicode="&#x2011;" horiz-adv-x="563" d="M66 354v230h426v-230h-426z" />
<glyph unicode="&#x2012;" horiz-adv-x="563" d="M66 354v230h426v-230h-426z" />
<glyph unicode="&#x2013;" horiz-adv-x="1126" d="M51 393v166h1024v-166h-1024z" />
<glyph unicode="&#x2014;" horiz-adv-x="2048" d="M0 391v168h2048v-168h-2048z" />
<glyph unicode="&#x2018;" d="M104 1022q1 170 222 354l84 -78q-131 -111 -131 -190q0 -80 104 -115q-45 -117 -141 -116q-63 0 -100.5 38.5t-37.5 106.5z" />
<glyph unicode="&#x2019;" d="M88 956q131 109 131 191q0 45 -22.5 69.5t-81.5 43.5q45 117 141 116q63 0 100 -39t37 -104q0 -170 -221 -356z" />
<glyph unicode="&#x201a;" d="M94 -207q72 57 102.5 102.5t30.5 88.5t-24.5 69.5t-81.5 42.5q47 117 141 117q63 0 100 -39t37 -104q0 -171 -221 -357z" />
<glyph unicode="&#x201c;" horiz-adv-x="837" d="M113 1018q0 170 221 356l82 -80q-131 -109 -131 -190q0 -41 24.5 -67.5t81.5 -45.5q-47 -117 -141 -117q-63 0 -100 39t-37 105zM438 1018q0 170 221 356l82 -80q-131 -109 -131 -190q0 -41 24.5 -67.5t82.5 -45.5q-47 -117 -142 -117q-63 0 -100 39t-37 105z" />
<glyph unicode="&#x201d;" horiz-adv-x="837" d="M90 956q131 109 131 191q0 45 -22.5 69.5t-81.5 43.5q45 117 141 116q63 0 100 -39t37 -104q0 -170 -221 -356zM416 956q131 109 131 191q0 45 -22.5 69.5t-82.5 43.5q45 117 142 116q63 0 100 -39t37 -104q0 -170 -221 -356z" />
<glyph unicode="&#x201e;" horiz-adv-x="837" d="M88 -207q131 109 131 191q0 45 -22.5 69.5t-81.5 42.5q45 117 141 117q63 0 100 -39t37 -104q0 -171 -221 -357zM414 -207q131 109 131 191q0 45 -22.5 69.5t-82.5 42.5q45 117 142 117q63 0 100 -39t37 -104q0 -171 -221 -357z" />
<glyph unicode="&#x2022;" horiz-adv-x="720" d="M35 473q0 135 95 230.5t230 95.5t230.5 -95.5t95.5 -230.5t-95.5 -230.5t-230.5 -95.5t-230 95.5t-95 230.5z" />
<glyph unicode="&#x2026;" horiz-adv-x="1536" d="M119 115q0 57 40 97t97 40t97 -40t40 -97t-40 -97.5t-97 -40.5t-97 40t-40 98zM647 115q0 57 40 97t97 40t98.5 -39t41.5 -98q0 -55 -41.5 -96.5t-98.5 -41.5t-97 40t-40 98zM1159 115q0 57 40 97t97 40t97.5 -40t40.5 -97t-40.5 -97.5t-97.5 -40.5t-97 40t-40 98z" />
<glyph unicode="&#x202f;" horiz-adv-x="365" />
<glyph unicode="&#x2039;" horiz-adv-x="702" d="M55 459l561 393v-84l-243 -309l243 -309v-87z" />
<glyph unicode="&#x203a;" horiz-adv-x="681" d="M86 63v87l242 309l-242 309v84l561 -393z" />
<glyph unicode="&#x205f;" horiz-adv-x="456" />
<glyph unicode="&#x2122;" horiz-adv-x="2048" d="M176 1155v225h68v-28h516v28h67v-225h-67v127h-191v-534h129v-58h-393v58h127v534h-188v-127h-68zM899 690v58h119v544h-119v60h260l201 -418l194 418h301v-60h-129v-544h129v-58h-395v58h129v493l-252 -551l-250 541v-483h121v-58h-309z" />
<glyph unicode="&#xe000;" horiz-adv-x="931" d="M0 0v932h932v-932h-932z" />
</font>
</defs>
</svg>
